<?xml version="1.0" ?><!DOCTYPE svg  PUBLIC '-//W3C//DTD SVG 1.1//EN'  'http://www.w3.org/Graphics/SVG/1.1/DTD/svg11.dtd'><svg enable-background="new 0 0 800 800" height="800px" id="GUIDE" version="1.1" viewBox="0 0 800 800" width="800px" xml:space="preserve" xmlns="http://www.w3.org/2000/svg" xmlns:cc="http://creativecommons.org/ns#" xmlns:dc="http://purl.org/dc/elements/1.1/" xmlns:inkscape="http://www.inkscape.org/namespaces/inkscape" xmlns:rdf="http://www.w3.org/1999/02/22-rdf-syntax-ns#" xmlns:sodipodi="http://sodipodi.sourceforge.net/DTD/sodipodi-0.dtd" xmlns:svg="http://www.w3.org/2000/svg" xmlns:xlink="http://www.w3.org/1999/xlink"><path d="M580.562,219.439c-12.721-12.723-29.637-19.728-47.623-19.728c-17.987,0-34.903,7.005-47.625,19.728  c-12.72,12.72-19.725,29.634-19.725,47.621c0,17.99,7.005,34.904,19.725,47.625c12.722,12.721,29.633,19.723,47.618,19.726  c0.007,0,0.007,0,0.007,0c17.986,0,34.902-7.005,47.623-19.726c12.721-12.723,19.726-29.636,19.726-47.625  C600.286,249.073,593.281,232.16,580.562,219.439z M553.771,287.895c-5.566,5.568-12.96,8.636-20.834,8.636l0,0  c-7.872-0.002-15.271-3.068-20.834-8.636c-5.566-5.562-8.633-12.96-8.633-20.834c0-7.868,3.065-15.269,8.633-20.834  c5.563-5.565,12.967-8.63,20.834-8.63c7.868,0,15.268,3.063,20.834,8.63C565.263,257.715,565.263,276.407,553.771,287.895z" fill="#041C3F"/><g><path d="M62.282,627.218c-4.847,0-9.693-1.847-13.392-5.546c-7.398-7.397-7.398-19.395,0-26.79L158.42,485.35   c7.398-7.397,19.392-7.397,26.79,0s7.398,19.395,0,26.792L75.676,621.672C71.978,625.371,67.131,627.218,62.282,627.218z" fill="#041C3F"/></g><g><path d="M86.774,732.172c-4.85,0-9.696-1.85-13.395-5.549c-7.398-7.397-7.398-19.389,0-26.786L187.545,585.67   c7.398-7.398,19.392-7.398,26.787,0c7.398,7.398,7.398,19.393,0,26.79L100.168,726.623C96.47,730.322,91.62,732.172,86.774,732.172   z" fill="#041C3F"/></g><g><path d="M191.725,756.661c-4.849,0-9.696-1.847-13.395-5.546c-7.398-7.397-7.398-19.393,0-26.789L287.863,614.79   c7.396-7.394,19.392-7.396,26.787,0c7.398,7.397,7.398,19.395,0,26.793L205.12,751.115   C201.421,754.813,196.574,756.661,191.725,756.661z" fill="#041C3F"/></g><path d="M751.113,48.891c-4.302-4.3-10.409-6.278-16.403-5.311c-2.202,0.357-54.705,8.98-126.25,36.316  c-41.974,16.034-81.85,35.237-118.529,57.076c-45.039,26.814-85.356,57.721-119.899,91.871l-143.055,27.85  c-3.693,0.718-7.086,2.524-9.753,5.177L87.618,391.06c-5.907,5.886-7.267,14.938-3.36,22.301c3.33,6.27,9.818,10.059,16.725,10.059  c1.202,0,2.415-0.114,3.628-0.347l146.185-28.463c-9.516,18.672-18.419,38.055-26.683,58.144  c-2.904,7.072-1.279,15.194,4.125,20.603l35.811,35.811l-33.27,33.27c-7.398,7.398-7.398,19.39,0,26.787  c3.699,3.699,8.545,5.549,13.397,5.549c4.847,0,9.693-1.85,13.392-5.546l33.27-33.271l35.811,35.813  c3.625,3.619,8.469,5.548,13.4,5.548c2.423,0,4.871-0.467,7.199-1.426c20.091-8.262,39.475-17.165,58.141-26.678l-28.455,146.186  c-1.593,8.183,2.35,16.443,9.709,20.352c2.806,1.488,5.852,2.213,8.879,2.213c4.917,0,9.778-1.918,13.417-5.573l129.188-129.604  c2.656-2.663,4.459-6.061,5.181-9.753l27.845-143.055c34.148-34.547,65.06-74.859,91.876-119.901  c21.834-36.683,41.04-76.558,57.077-118.529c27.33-71.551,35.958-124.048,36.313-126.25  C757.386,59.292,755.407,53.188,751.113,48.891z M158.393,374.001l81.489-81.224l87.674-17.069  c-19.015,23.391-36.655,48.634-52.847,75.648L158.393,374.001z M507.219,560.121l-81.222,81.489l22.643-116.316  c27.021-16.192,52.259-33.83,75.648-52.848L507.219,560.121z M684.359,178.936c-23.915,62.371-68.01,152.302-142.237,226.531  c-34.171,34.168-73.96,64.54-118.89,90.838c-0.804,0.401-1.585,0.854-2.322,1.366c-24.049,13.943-49.566,26.728-76.476,38.302  l-26.806-26.809l54.11-54.106c7.395-7.397,7.395-19.392,0-26.79c-7.398-7.397-19.392-7.396-26.79,0l-54.109,54.106l-26.806-26.809  c11.578-26.913,24.361-52.433,38.308-76.488c0.508-0.732,0.951-1.5,1.35-2.295c26.298-44.938,56.672-84.732,90.849-118.909  c74.225-74.225,164.156-118.319,226.527-142.235c37.897-14.537,70.522-23.601,92.09-28.797  C707.959,108.412,698.894,141.038,684.359,178.936z" fill="#041C3F"/></svg>