<svg xmlns="http://www.w3.org/2000/svg" viewBox="0 0 20 20" width="20" height="20">
  <path d="M14.51 5.49a1.67 1.67 0 0 0-2.38 0 1.67 1.67 0 0 0 0 2.38c.32.32.74.49 1.2.49A1.67 1.67 0 0 0 15 6.68c0-.45-.18-.88-.5-1.2zm-.67 1.7a.73.73 0 0 1-1.04 0 .73.73 0 0 1 0-1.03.73.73 0 0 1 1.04 0c.3.28.3.75 0 1.04zM1.56 15.68a.47.47 0 0 1-.33-.8l2.73-2.75a.47.47 0 0 1 .67.67l-2.74 2.74c-.1.1-.21.14-.33.14zM2.17 18.3a.47.47 0 0 1-.34-.8l2.86-2.86a.47.47 0 1 1 .67.67L2.5 18.17c-.09.09-.21.13-.33.13zM4.8 18.92a.47.47 0 0 1-.34-.81l2.74-2.74a.47.47 0 0 1 .67.67l-2.74 2.74c-.1.09-.22.14-.34.14z"/>
  <path d="M18.78 1.22a.47.47 0 0 0-.41-.13 19.2 19.2 0 0 0-6.12 2.33 15.63 15.63 0 0 0-3 2.3l-3.58.7a.47.47 0 0 0-.24.13L2.2 9.78a.47.47 0 0 0 .43.8l3.65-.71c-.24.46-.46.95-.67 1.45a.47.47 0 0 0 .1.51l.9.9-.83.83a.47.47 0 1 0 .67.67l.83-.83.9.9a.47.47 0 0 0 .51.1c.5-.2.99-.43 1.45-.67l-.7 3.66a.47.47 0 0 0 .8.42l3.22-3.24a.47.47 0 0 0 .13-.24l.7-3.58c.85-.86 1.63-1.87 2.3-3a19.22 19.22 0 0 0 2.33-6.12.47.47 0 0 0-.13-.4zM3.96 9.35L6 7.32l2.19-.43c-.48.59-.92 1.22-1.32 1.9l-2.91.56zM12.68 14l-2.03 2.04.57-2.9c.67-.41 1.3-.85 1.89-1.33l-.43 2.2zm4.43-9.53c-.6 1.56-1.7 3.81-3.56 5.67a14.65 14.65 0 0 1-3.03 2.3c-.6.35-1.24.67-1.9.96l-.68-.67 1.35-1.35a.47.47 0 0 0-.67-.67l-1.35 1.35-.67-.67a17.95 17.95 0 0 1 1-1.97 14.64 14.64 0 0 1 2.26-2.97 16.42 16.42 0 0 1 5.67-3.56c.94-.36 1.76-.59 2.3-.72-.13.54-.36 1.36-.72 2.3z"/>
</svg>
